<svg width="100" height="100" viewBox="0 0 100 100" fill="none" xmlns="http://www.w3.org/2000/svg">
<g id="Frame 7">
<rect width="100" height="100" rx="16" fill="#515151"/>
<path id="Vector" d="M76.2514 50.1383C75.9505 35.2748 63.5784 23.5019 48.7063 24.0162C34.1792 24.5173 22.6921 36.6982 23.0063 51.2646C23.2408 62.0265 29.7986 71.1611 39.0511 75.1785C40.3653 73.5068 41.4582 70.5048 42.0025 68.8287C42.5468 67.4629 43.122 66.1282 43.7238 64.8334C46.4274 65.7779 50.0603 64.8822 52.0426 62.7183L52.1223 62.6296H52.1134C49.7063 61.5698 46.392 62.1196 44.2061 63.8135C44.9495 62.266 45.7371 60.7716 46.5646 59.3349C49.224 60.3992 52.8834 59.6764 54.9675 57.61L55.0516 57.5258H55.0427C52.7241 56.3729 49.4541 56.732 47.1929 58.2619C48.016 56.8917 48.87 55.5703 49.7638 54.3065C52.5161 55.1623 56.1446 54.107 58.0428 51.8411L58.1181 51.7524H58.1092C55.8658 50.8833 52.9188 51.3932 50.8214 52.861C50.8966 52.7634 50.9674 52.6614 51.0426 52.5639C51.578 51.8633 52.1267 51.1848 52.6843 50.5197C55.9366 49.5974 58.8349 46.2761 59.2995 42.844L59.3172 42.7066H59.3039C55.941 43.3806 52.8259 46.6974 52.2019 50.2048C51.6665 50.8434 51.14 51.4952 50.6267 52.1648C51.4674 49.8811 51.317 47.1053 50.0913 45.1897V45.1809L50.0116 45.274C48.1576 47.6153 47.8611 51.4376 49.2992 53.9695C48.454 55.1668 47.6398 56.4128 46.8566 57.7031C47.3478 55.1091 46.5203 52.0983 44.7017 50.4H44.6928L44.6442 50.5019C43.445 53.2068 44.0866 56.9405 46.0646 59.0423C45.2858 60.4036 44.538 61.8092 43.83 63.2681C44.2636 60.5721 43.299 57.4548 41.3697 55.7609L41.3609 55.7521L41.3166 55.8629C40.2237 58.7009 41.0644 62.5453 43.1884 64.5984C42.7282 65.5961 42.2813 66.6115 41.852 67.6536C41.7458 67.5472 41.6131 67.4629 41.4627 67.4186C40.9095 67.2545 40.144 66.9663 39.2989 66.4563C38.7413 66.1238 38.1484 65.8488 37.5333 65.6449C35.1306 64.8556 35.4846 63.6938 34.2323 61.3703C34.1527 61.2195 33.1571 60.1819 32.9447 59.9956C32.8916 59.9513 32.2588 59.5788 31.9358 58.9004C31.6393 58.2752 31.4756 57.6987 31.4136 57.1311C31.334 56.3729 31.0198 55.8762 30.2853 55.6235C26.7498 54.3996 28.3339 49.8013 28.4578 49.1894C28.564 48.6662 28.1082 47.531 27.9401 46.9058C27.9224 46.8304 27.9047 46.7373 27.8826 46.6264C27.6259 45.3937 28.2012 44.3517 28.6259 43.9215C29.0507 43.4914 30.5154 42.8085 30.8251 42.405C31.126 42.0104 31.3694 41.5581 31.6791 41.1723C32.0907 40.6579 33.3518 39.6514 35.0509 38.7379C36.0775 38.1881 36.2634 36.7425 36.6528 36.3035C37.3253 35.5453 38.3387 35.5453 39.0953 34.8624C39.4759 34.5165 40.029 34.348 40.383 33.9844C42.1352 32.1841 44.4805 31.4569 46.8035 31.0223C48.3655 30.7297 50.109 31.182 51.7418 31.4569C51.9807 31.4968 52.2108 31.5544 52.432 31.621C56.1003 31.7451 60.5208 32.5122 62.1138 34.0731C63.1094 35.0486 63.5961 36.1084 63.8351 36.8401C64.1006 37.656 64.4678 38.4364 64.9148 39.168L65.8971 40.7688C66.5166 41.7798 66.7245 42.9992 66.4546 44.1565C66.3042 44.8172 66.2245 45.509 66.4192 45.8948C66.7245 46.4934 67.6671 47.4734 68.2334 48.0321C68.5078 48.3026 68.8087 48.542 69.1361 48.7504C69.8928 49.2293 71.322 50.1472 71.3265 50.227C71.3265 50.3334 71.4459 50.7902 70.8132 51.34C70.1804 51.8899 68.9857 52.7678 68.9857 52.7678C68.9857 52.7678 69.0476 53.1714 69.2158 53.4906C69.3839 53.8099 69.7954 54.2888 69.6715 54.7189C69.5476 55.149 68.6671 55.4949 68.9193 55.9738C69.1715 56.4527 69.791 56.6035 69.614 57.038C69.4326 57.4726 68.5609 58.2175 68.6494 58.5412C68.7379 58.8649 69.4414 61.8403 67.8131 62.3591C66.5829 62.7493 63.2112 62.971 61.627 63.0553C60.9412 63.0907 60.3261 63.481 59.9987 64.0796C59.7509 64.5319 59.5119 65.1527 59.388 65.9819C59.0827 68.0881 57.003 72.9303 57.003 72.9303C57.003 72.9303 56.941 73.0545 56.8481 73.254C56.6667 73.6886 56.41 74.3759 56.4454 74.6508C56.4676 74.8326 56.7154 75.1829 57.0738 75.613C57.357 75.9545 57.826 76.0875 58.2464 75.9412C68.9237 72.2874 76.5036 62.0443 76.2603 50.1383" fill="#303030"/>
</g>
</svg>
