<svg width="70" height="81" viewBox="0 0 70 81" fill="none" xmlns="http://www.w3.org/2000/svg">
<g id="Group 11">
<path id="Vector" d="M34.9998 51.7721C35.3866 51.7721 35.7575 51.6184 36.031 51.3449C36.3045 51.0714 36.4581 50.7005 36.4581 50.3137V41.7023L44.479 36.9919C44.7964 36.7901 45.0236 36.4735 45.1131 36.1081C45.2025 35.7428 45.1474 35.357 44.9592 35.0313C44.7709 34.7057 44.4642 34.4654 44.1029 34.3606C43.7417 34.2558 43.3539 34.2946 43.0206 34.469L34.9998 39.1721L26.979 34.469C26.813 34.3634 26.6274 34.2926 26.4333 34.2607C26.2392 34.2287 26.0407 34.2364 25.8497 34.2832C25.6586 34.33 25.479 34.415 25.3217 34.533C25.1643 34.651 25.0325 34.7996 24.934 34.9699C24.8356 35.1401 24.7726 35.3286 24.7489 35.5238C24.7252 35.7191 24.7412 35.9171 24.796 36.106C24.8508 36.2949 24.9433 36.4707 25.0678 36.623C25.1923 36.7752 25.3464 36.9007 25.5206 36.9919L33.5415 41.7023V50.3137C33.5415 50.7005 33.6951 51.0714 33.9686 51.3449C34.2421 51.6184 34.613 51.7721 34.9998 51.7721Z" fill="white"/>
<path id="Vector_2" d="M46.6668 6.81892L35.7294 0.212674C35.5009 0.0735743 35.2385 0 34.971 0C34.7035 0 34.4412 0.0735743 34.2127 0.212674L23.37 6.81892C23.2062 6.91851 23.0637 7.04937 22.9506 7.20403C22.8374 7.3587 22.7558 7.53414 22.7104 7.72034C22.6651 7.90654 22.6568 8.09986 22.6862 8.28924C22.7155 8.47863 22.7819 8.66039 22.8814 8.82413C22.981 8.98787 23.1119 9.13039 23.2666 9.24356C23.4212 9.35673 23.5967 9.43832 23.7829 9.48369C23.9691 9.52905 24.1624 9.5373 24.3518 9.50796C24.5412 9.47861 24.7229 9.41225 24.8867 9.31267L35.0002 3.1658L45.1137 9.31267C45.3338 9.44629 45.5854 9.51925 45.8429 9.52413C46.1589 9.51833 46.4645 9.41001 46.7136 9.21549C46.9628 9.02096 47.1419 8.75076 47.2242 8.44557C47.3065 8.14039 47.2873 7.81674 47.1697 7.52336C47.0521 7.22998 46.8424 6.98276 46.5721 6.81892H46.6668Z" fill="white"/>
<path id="Vector_3" d="M45.1137 70.898L36.4585 76.1553V64.897C36.4585 64.5102 36.3049 64.1393 36.0314 63.8658C35.7579 63.5923 35.387 63.4387 35.0002 63.4387C34.6134 63.4387 34.2425 63.5923 33.969 63.8658C33.6955 64.1393 33.5419 64.5102 33.5419 64.897V76.1553L24.8867 70.898C24.556 70.6969 24.1589 70.6354 23.7829 70.727C23.4068 70.8186 23.0826 71.0559 22.8814 71.3866C22.6803 71.7173 22.6188 72.1143 22.7104 72.4904C22.802 72.8664 23.0393 73.1907 23.37 73.3918L34.271 79.998C34.4995 80.1371 34.7619 80.2107 35.0294 80.2107C35.2969 80.2107 35.5592 80.1371 35.7877 79.998L46.6669 73.3918C46.9975 73.1907 47.2348 72.8664 47.3264 72.4904C47.418 72.1143 47.3565 71.7173 47.1554 71.3866C46.9543 71.0559 46.63 70.8186 46.254 70.727C45.8779 70.6354 45.4809 70.6969 45.1502 70.898H45.1137Z" fill="white"/>
<path id="Vector_4" d="M14.2625 26.4481L4.50625 20.8189L13.3875 15.9481C13.5679 15.8635 13.729 15.7428 13.861 15.5934C13.9929 15.4441 14.0928 15.2694 14.1546 15.0799C14.2164 14.8905 14.2387 14.6904 14.2201 14.492C14.2015 14.2936 14.1425 14.1011 14.0467 13.9264C13.9509 13.7517 13.8202 13.5985 13.6629 13.4763C13.5056 13.354 13.3248 13.2653 13.1319 13.2156C12.9389 13.1659 12.7378 13.1563 12.541 13.1873C12.3442 13.2183 12.1558 13.2894 11.9875 13.396L0.831249 19.5064C0.608701 19.6349 0.424056 19.8199 0.29601 20.0427C0.167963 20.2655 0.101063 20.5182 0.102083 20.7752L0 33.5429C0 33.9296 0.153646 34.3006 0.427136 34.5741C0.700626 34.8476 1.07156 35.0012 1.45833 35.0012C1.84511 35.0012 2.21604 34.8476 2.48953 34.5741C2.76302 34.3006 2.91667 33.9296 2.91667 33.5429L2.975 23.3345L12.8042 29.0075C13.0257 29.136 13.2772 29.2039 13.5333 29.2043C13.8539 29.2038 14.1653 29.0976 14.4195 28.9022C14.6736 28.7069 14.8563 28.4333 14.9393 28.1236C15.0223 27.814 15.001 27.4857 14.8787 27.1894C14.7563 26.8931 14.5398 26.6454 14.2625 26.4845V26.4481Z" fill="white"/>
<path id="Vector_5" d="M68.5415 45.2096C68.1548 45.2096 67.7838 45.3632 67.5103 45.6367C67.2369 45.9102 67.0832 46.2812 67.0832 46.6679L67.0176 58.5679L56.6124 64.2627C56.432 64.3473 56.2709 64.468 56.1389 64.6174C56.007 64.7667 55.9071 64.9414 55.8453 65.1309C55.7835 65.3203 55.7612 65.5204 55.7798 65.7188C55.7983 65.9172 55.8574 66.1097 55.9532 66.2844C56.049 66.4591 56.1796 66.6123 56.337 66.7345C56.4943 66.8568 56.675 66.9455 56.868 66.9952C57.061 67.0449 57.2621 67.0545 57.4589 67.0235C57.6557 66.9925 57.8441 66.9214 58.0124 66.8148L69.1686 60.7044C69.3912 60.5759 69.5758 60.3909 69.7039 60.1681C69.8319 59.9453 69.8988 59.6926 69.8978 59.4356L69.9999 46.6679C69.9999 46.2812 69.8462 45.9102 69.5727 45.6367C69.2993 45.3632 68.9283 45.2096 68.5415 45.2096Z" fill="white"/>
<path id="Vector_6" d="M57.1957 28.971L67.0248 23.3346L67.0832 33.5429C67.0832 33.9297 67.2368 34.3006 67.5103 34.5741C67.7838 34.8476 68.1547 35.0012 68.5415 35.0012C68.9283 35.0012 69.2992 34.8476 69.5727 34.5741C69.8462 34.3006 69.9998 33.9297 69.9998 33.5429L69.9269 20.7825C69.9279 20.5255 69.861 20.2728 69.733 20.05C69.6049 19.8272 69.4203 19.6422 69.1977 19.5137L58.0415 13.4033C57.8732 13.2967 57.6848 13.2256 57.488 13.1946C57.2912 13.1636 57.0901 13.1732 56.8971 13.2229C56.7042 13.2726 56.5234 13.3613 56.3661 13.4836C56.2087 13.6059 56.0781 13.7591 55.9823 13.9338C55.8865 14.1085 55.8274 14.3009 55.8089 14.4993C55.7903 14.6977 55.8126 14.8978 55.8744 15.0872C55.9362 15.2767 56.0361 15.4515 56.168 15.6008C56.3 15.7501 56.4611 15.8708 56.6415 15.9554L65.5227 20.8262L55.7373 26.4481C55.4601 26.609 55.2435 26.8567 55.1211 27.153C54.9988 27.4493 54.9775 27.7776 55.0605 28.0872C55.1435 28.3968 55.3262 28.6705 55.5804 28.8658C55.8345 29.0612 56.1459 29.1673 56.4665 29.1679C56.7226 29.1675 56.9741 29.0995 57.1957 28.971Z" fill="white"/>
<path id="Vector_7" d="M13.3875 64.2627L2.98229 58.5606L2.91667 46.6679C2.91667 46.2812 2.76302 45.9102 2.48953 45.6367C2.21604 45.3632 1.84511 45.2096 1.45833 45.2096C1.07156 45.2096 0.700626 45.3632 0.427136 45.6367C0.153646 45.9102 0 46.2812 0 46.6679L0.0729169 59.4283C0.0718967 59.6853 0.138797 59.938 0.266844 60.1608C0.39489 60.3836 0.579535 60.5686 0.802083 60.6971L11.9583 66.8075C12.1266 66.9142 12.315 66.9852 12.5118 67.0162C12.7087 67.0473 12.9098 67.0376 13.1027 66.9879C13.2957 66.9382 13.4764 66.8495 13.6337 66.7272C13.7911 66.605 13.9217 66.4518 14.0175 66.2771C14.1134 66.1024 14.1724 65.9099 14.1909 65.7115C14.2095 65.5131 14.1872 65.313 14.1254 65.1236C14.0637 64.9342 13.9637 64.7594 13.8318 64.6101C13.6999 64.4607 13.5387 64.34 13.3583 64.2554L13.3875 64.2627Z" fill="white"/>
</g>
</svg>
