<svg width="221" height="211" viewBox="0 0 221 211" fill="none" xmlns="http://www.w3.org/2000/svg">
<g id="Group 13">
<path id="Vector" d="M21.6749 205.627H199.325C202.21 205.627 205.046 204.87 207.556 203.432C210.065 201.993 212.162 199.922 213.641 197.42C215.12 194.918 215.932 192.072 215.996 189.159C216.06 186.246 215.375 183.365 214.007 180.8L125.187 14.2142C118.886 2.40318 102.114 2.40318 95.8131 14.2142L6.99315 180.8C5.62532 183.365 4.93999 186.246 5.00412 189.159C5.06826 192.072 5.87967 194.918 7.35906 197.42C8.83846 199.922 10.9352 201.993 13.4444 203.432C15.9537 204.87 18.7895 205.627 21.6749 205.627Z" stroke="#8755CD" stroke-width="10" stroke-linecap="round" stroke-linejoin="round"/>
<path id="Vector_2" d="M108.715 72.8888L110.503 137.678L112.288 72.9153C112.299 72.5013 112.26 72.0878 112.174 71.7001C112.088 71.3124 111.957 70.9586 111.788 70.6604C111.619 70.3621 111.417 70.1257 111.192 69.9656C110.968 69.8054 110.727 69.7249 110.484 69.729C110.245 69.7329 110.009 69.8185 109.79 69.9805C109.571 70.1425 109.373 70.3777 109.208 70.6722C109.043 70.9668 108.915 71.3147 108.83 71.6954C108.745 72.0761 108.706 72.4818 108.715 72.8888Z" stroke="#8755CD" stroke-width="10" stroke-linecap="round" stroke-linejoin="round"/>
<path id="Vector_3" d="M108.712 180.593C106.59 180.593 104.515 179.964 102.751 178.785C100.987 177.606 99.6116 175.931 98.7996 173.97C97.9876 172.01 97.7751 169.853 98.1891 167.771C98.603 165.69 99.6249 163.778 101.125 162.278C102.626 160.778 104.537 159.756 106.619 159.342C108.7 158.928 110.857 159.14 112.817 159.952C114.778 160.764 116.454 162.139 117.632 163.904C118.811 165.668 119.441 167.742 119.441 169.864C119.441 172.71 118.31 175.439 116.298 177.451C114.286 179.463 111.557 180.593 108.712 180.593Z" fill="#8755CD"/>
</g>
</svg>
