<svg width="56" height="52" viewBox="0 0 56 52" fill="none" xmlns="http://www.w3.org/2000/svg">
<g id="metamask-icon 1" clip-path="url(#clip0_213_417)">
<path id="Vector" d="M53.1617 0.0552177L31.353 16.2761L35.3868 6.70569L53.1617 0.0552177Z" fill="#E2761B" stroke="#E2761B" stroke-linecap="round" stroke-linejoin="round"/>
<path id="Vector_2" d="M2.81641 0.0552177L24.4498 16.4296L20.6134 6.70569L2.81641 0.0552177Z" fill="#E4761B" stroke="#E4761B" stroke-linecap="round" stroke-linejoin="round"/>
<path id="Vector_3" d="M45.3144 37.6554L39.5063 46.5676L51.9341 49.9912L55.507 37.8531L45.3144 37.6554Z" fill="#E4761B" stroke="#E4761B" stroke-linecap="round" stroke-linejoin="round"/>
<path id="Vector_4" d="M0.515137 37.8531L4.06593 49.9912L16.4937 46.5676L10.6856 37.6554L0.515137 37.8531Z" fill="#E4761B" stroke="#E4761B" stroke-linecap="round" stroke-linejoin="round"/>
<path id="Vector_5" d="M15.7923 22.5975L12.3286 27.8443L24.6682 28.3932L24.2304 15.1132L15.7923 22.5975Z" fill="#E4761B" stroke="#E4761B" stroke-linecap="round" stroke-linejoin="round"/>
<path id="Vector_6" d="M40.1859 22.5975L31.6386 14.9597L31.353 28.3932L43.6716 27.8443L40.1859 22.5975Z" fill="#E4761B" stroke="#E4761B" stroke-linecap="round" stroke-linejoin="round"/>
<path id="Vector_7" d="M16.4937 46.5676L23.9018 42.9453L17.5015 37.9404L16.4937 46.5676Z" fill="#E4761B" stroke="#E4761B" stroke-linecap="round" stroke-linejoin="round"/>
<path id="Vector_8" d="M32.0762 42.9453L39.5064 46.5676L38.4764 37.9404L32.0762 42.9453Z" fill="#E4761B" stroke="#E4761B" stroke-linecap="round" stroke-linejoin="round"/>
<path id="Vector_9" d="M39.5064 46.5676L32.0762 42.9453L32.6683 47.7968L32.6022 49.8377L39.5064 46.5676Z" fill="#D7C1B3" stroke="#D7C1B3" stroke-linecap="round" stroke-linejoin="round"/>
<path id="Vector_10" d="M16.4937 46.5676L23.3979 49.8377L23.3537 47.7968L23.9018 42.9453L16.4937 46.5676Z" fill="#D7C1B3" stroke="#D7C1B3" stroke-linecap="round" stroke-linejoin="round"/>
<path id="Vector_11" d="M23.507 34.7366L17.3262 32.9144L21.6875 30.9166L23.507 34.7366Z" fill="#233447" stroke="#233447" stroke-linecap="round" stroke-linejoin="round"/>
<path id="Vector_12" d="M32.4712 34.7366L34.2907 30.9166L38.6741 32.9144L32.4712 34.7366Z" fill="#233447" stroke="#233447" stroke-linecap="round" stroke-linejoin="round"/>
<path id="Vector_13" d="M16.4936 46.5676L17.5456 37.6554L10.6855 37.8531L16.4936 46.5676Z" fill="#CD6116" stroke="#CD6116" stroke-linecap="round" stroke-linejoin="round"/>
<path id="Vector_14" d="M38.4546 37.6554L39.5066 46.5676L45.3147 37.8531L38.4546 37.6554Z" fill="#CD6116" stroke="#CD6116" stroke-linecap="round" stroke-linejoin="round"/>
<path id="Vector_15" d="M43.6716 27.8443L31.353 28.3932L32.4933 34.7366L34.3128 30.9166L38.6961 32.9144L43.6716 27.8443Z" fill="#CD6116" stroke="#CD6116" stroke-linecap="round" stroke-linejoin="round"/>
<path id="Vector_16" d="M17.3262 32.9144L21.7095 30.9166L23.507 34.7366L24.6682 28.3932L12.3286 27.8443L17.3262 32.9144Z" fill="#CD6116" stroke="#CD6116" stroke-linecap="round" stroke-linejoin="round"/>
<path id="Vector_17" d="M12.3286 27.8443L17.5015 37.9404L17.3262 32.9144L12.3286 27.8443Z" fill="#E4751F" stroke="#E4751F" stroke-linecap="round" stroke-linejoin="round"/>
<path id="Vector_18" d="M38.696 32.9144L38.4766 37.9404L43.6715 27.8443L38.696 32.9144Z" fill="#E4751F" stroke="#E4751F" stroke-linecap="round" stroke-linejoin="round"/>
<path id="Vector_19" d="M24.668 28.3932L23.5068 34.7366L24.9536 42.2209L25.2822 32.3655L24.668 28.3932Z" fill="#E4751F" stroke="#E4751F" stroke-linecap="round" stroke-linejoin="round"/>
<path id="Vector_20" d="M31.3528 28.3932L30.7617 32.3435L31.0242 42.2209L32.493 34.7366L31.3528 28.3932Z" fill="#E4751F" stroke="#E4751F" stroke-linecap="round" stroke-linejoin="round"/>
<path id="Vector_21" d="M32.4933 34.7366L31.0244 42.2209L32.0764 42.9453L38.4767 37.9404L38.6961 32.9144L32.4933 34.7366Z" fill="#F6851B" stroke="#F6851B" stroke-linecap="round" stroke-linejoin="round"/>
<path id="Vector_22" d="M17.3262 32.9144L17.5015 37.9404L23.9018 42.9453L24.9538 42.2209L23.507 34.7366L17.3262 32.9144Z" fill="#F6851B" stroke="#F6851B" stroke-linecap="round" stroke-linejoin="round"/>
<path id="Vector_23" d="M32.6024 49.8377L32.6685 47.7968L32.1205 47.3131H23.8577L23.3537 47.7968L23.3979 49.8377L16.4937 46.5676L18.9042 48.5422L23.7915 51.9448H32.1866L37.096 48.5422L39.5066 46.5676L32.6024 49.8377Z" fill="#C0AD9E" stroke="#C0AD9E" stroke-linecap="round" stroke-linejoin="round"/>
<path id="Vector_24" d="M32.0761 42.9453L31.0241 42.2209H24.9536L23.9016 42.9453L23.3535 47.7968L23.8575 47.3131H32.1202L32.6683 47.7968L32.0761 42.9453Z" fill="#161616" stroke="#161616" stroke-linecap="round" stroke-linejoin="round"/>
<path id="Vector_25" d="M54.0823 17.3297L55.9448 8.37438L53.1615 0.0552177L32.0762 15.7272L40.1857 22.5975L51.6485 25.9558L54.1914 22.9928L53.0953 22.2032L54.8487 20.6008L53.4901 19.5472L55.2435 18.2076L54.0823 17.3297Z" fill="#763D16" stroke="#763D16" stroke-linecap="round" stroke-linejoin="round"/>
<path id="Vector_26" d="M0.0551758 8.37438L1.91769 17.3297L0.734458 18.2076L2.4878 19.5472L1.15129 20.6008L2.90463 22.2032L1.80852 22.9928L4.32936 25.9558L15.7923 22.5975L23.9017 15.7272L2.81641 0.0552177L0.0551758 8.37438Z" fill="#763D16" stroke="#763D16" stroke-linecap="round" stroke-linejoin="round"/>
<path id="Vector_27" d="M51.6487 25.9558L40.1858 22.5975L43.6715 27.8443L38.4766 37.9404L45.3146 37.8531H55.5071L51.6487 25.9558Z" fill="#F6851B" stroke="#F6851B" stroke-linecap="round" stroke-linejoin="round"/>
<path id="Vector_28" d="M15.7924 22.5975L4.32948 25.9558L0.515137 37.8531H10.6856L17.5016 37.9404L12.3287 27.8443L15.7924 22.5975Z" fill="#F6851B" stroke="#F6851B" stroke-linecap="round" stroke-linejoin="round"/>
<path id="Vector_29" d="M31.3528 28.3932L32.0762 15.7272L35.4086 6.70569H20.6133L23.9016 15.7272L24.668 28.3932L24.9316 32.3876L24.9536 42.2209H31.0242L31.0683 32.3876L31.3528 28.3932Z" fill="#F6851B" stroke="#F6851B" stroke-linecap="round" stroke-linejoin="round"/>
</g>
<defs>
<clipPath id="clip0_213_417">
<rect width="56" height="52" fill="white"/>
</clipPath>
</defs>
</svg>
