<svg width="197" height="42" viewBox="0 0 197 42" fill="none" xmlns="http://www.w3.org/2000/svg">
<g clip-path="url(#clip0_213_386)">
<path d="M43.0105 21.113C42.7675 9.10789 32.7747 -0.400935 20.7626 0.0145165C9.02932 0.419224 -0.248668 10.2575 0.00508327 22.0227C0.194503 30.7149 5.4911 38.0928 12.9642 41.3376C14.0257 39.9874 14.9085 37.5627 15.3481 36.2089C15.7877 35.1058 16.2523 34.0278 16.7383 32.982C18.922 33.7449 21.8562 33.0214 23.4574 31.2737L23.5217 31.202H23.5146C21.5703 30.3461 18.8934 30.7902 17.1279 32.1583C17.7283 30.9083 18.3645 29.7014 19.0328 28.541C21.1808 29.4005 24.1364 28.8168 25.8198 27.1478L25.8877 27.0797H25.8805C24.0078 26.1486 21.3666 26.4387 19.5403 27.6743C20.2051 26.5676 20.8949 25.5003 21.6168 24.4796C23.8398 25.1708 26.7704 24.3184 28.3037 22.4883L28.3644 22.4167H28.3573C26.5453 21.7147 24.165 22.1266 22.471 23.312C22.5317 23.2332 22.5889 23.1509 22.6497 23.0721C23.0821 22.5062 23.5253 21.9582 23.9756 21.421C26.6025 20.6761 28.9434 17.9935 29.3187 15.2215L29.333 15.1104H29.3222C26.606 15.6548 24.09 18.3338 23.586 21.1667C23.1536 21.6825 22.7283 22.2089 22.3137 22.7497C22.9928 20.9053 22.8713 18.6633 21.8813 17.1161V17.1089L21.8169 17.1841C20.3194 19.0751 20.08 22.1624 21.2415 24.2074C20.5589 25.1744 19.9013 26.1808 19.2687 27.223C19.6654 25.1278 18.9971 22.696 17.5282 21.3243H17.521L17.4817 21.4067C16.5132 23.5914 17.0314 26.607 18.629 28.3046C17.9999 29.4041 17.396 30.5395 16.8241 31.7178C17.1744 29.5402 16.3952 27.0224 14.837 25.6543L14.8299 25.6472L14.7941 25.7367C13.9113 28.0288 14.5904 31.134 16.3059 32.7922C15.9342 33.598 15.5732 34.4182 15.2266 35.2598C15.1408 35.1739 15.0336 35.1058 14.9121 35.07C14.4653 34.9375 13.847 34.7047 13.1644 34.2928C12.7141 34.0242 12.2352 33.8022 11.7384 33.6374C9.79772 32.9999 10.0836 32.0616 9.07221 30.1849C9.00788 30.0631 8.20374 29.2251 8.03219 29.0746C7.9893 29.0388 7.47822 28.738 7.21733 28.19C6.97787 27.685 6.84563 27.2194 6.7956 26.761C6.73127 26.1486 6.47752 25.7474 5.88424 25.5433C3.02865 24.5548 4.30813 20.8408 4.4082 20.3466C4.49397 19.924 4.12585 19.0071 3.99004 18.5021C3.97575 18.4412 3.96145 18.366 3.94358 18.2765C3.73629 17.2808 4.20091 16.4392 4.54401 16.0918C4.88711 15.7444 6.07009 15.1928 6.32026 14.8669C6.56329 14.5482 6.75986 14.1828 7.01004 13.8713C7.34241 13.4558 8.36099 12.6428 9.73339 11.905C10.5625 11.4609 10.7127 10.2934 11.0272 9.93879C11.5704 9.32636 12.3888 9.32636 13 8.77481C13.3073 8.49546 13.7541 8.35936 14.04 8.06568C15.4553 6.6116 17.3495 6.02424 19.2258 5.67325C20.4874 5.43687 21.8956 5.80219 23.2143 6.02424C23.4073 6.05647 23.5932 6.10303 23.7719 6.15675C26.7347 6.25703 30.3051 6.87663 31.5917 8.13731C32.3958 8.92523 32.789 9.78121 32.982 10.3722C33.1964 11.0311 33.493 11.6615 33.854 12.2524L34.6474 13.5453C35.1478 14.3619 35.3158 15.3468 35.0978 16.2816C34.9762 16.8152 34.9119 17.3739 35.0692 17.6855C35.3158 18.169 36.077 18.9605 36.5345 19.4118C36.7561 19.6303 36.9991 19.8237 37.2636 19.992C37.8747 20.3788 39.0291 21.1202 39.0327 21.1846C39.0327 21.2706 39.1292 21.6395 38.6181 22.0836C38.107 22.5277 37.1421 23.2368 37.1421 23.2368C37.1421 23.2368 37.1921 23.5627 37.3279 23.8206C37.4637 24.0785 37.7961 24.4653 37.696 24.8127C37.5959 25.1601 36.8847 25.4394 37.0884 25.8262C37.2922 26.213 37.7925 26.3348 37.6496 26.6858C37.503 27.0368 36.799 27.6385 36.8704 27.8999C36.9419 28.1614 37.5102 30.5645 36.195 30.9836C35.2014 31.2987 32.478 31.4778 31.1986 31.5459C30.6446 31.5745 30.1478 31.8897 29.8834 32.3732C29.6832 32.7385 29.4902 33.2399 29.3901 33.9096C29.1435 35.6108 27.4638 39.5218 27.4638 39.5218C27.4638 39.5218 27.4137 39.6221 27.3387 39.7833C27.1922 40.1342 26.9849 40.6894 27.0135 40.9114C27.0313 41.0583 27.2315 41.3412 27.521 41.6886C27.7497 41.9644 28.1285 42.0718 28.4681 41.9536C37.092 39.0025 43.2142 30.7293 43.0176 21.113" fill="#00DACC"/>
<path d="M62.1406 10.6012H67.062L72.5194 19.3937L77.9768 10.6012H82.8982V31.3988H78.3592V17.8215L72.5194 26.7035H72.4015L66.6188 17.911V31.3988H62.1406V10.6012Z" fill="white"/>
<path d="M99.1484 10.6012H114.802V14.6698H103.684V18.8887H113.469V22.9609H103.684V27.3303H114.952V31.3988H99.1484V10.6012Z" fill="white"/>
<path d="M135.112 14.8202H128.797V10.6012H145.995V14.8202H139.68V31.3988H135.112V14.8202Z" fill="white"/>
<path d="M165.54 10.6012H160.973V31.4024H165.54V10.6012Z" fill="white"/>
<path d="M180.57 28.3689L183.269 25.1313C185.166 26.6749 187.093 27.6562 189.466 27.6562C191.364 27.6562 192.461 26.9148 192.461 25.6935V25.6327C192.461 24.4758 191.75 23.8491 188.279 22.9895C184.069 21.9509 181.399 20.7332 181.399 16.6324V16.5715C181.399 12.7966 184.394 10.3004 188.665 10.3004C191.717 10.3004 194.241 11.253 196.374 12.9435L194.001 16.3889C192.132 15.1103 190.384 14.3403 188.605 14.3403C186.825 14.3403 185.935 15.1139 185.935 16.1525V16.2134C185.935 17.6102 186.825 17.997 190.413 18.946C194.623 20.0742 196.996 21.5605 196.996 25.185V25.2459C196.996 29.3753 193.855 31.6925 189.377 31.6925C186.203 31.6925 183.061 30.6217 180.57 28.3653" fill="white"/>
</g>
<defs>
<clipPath id="clip0_213_386">
<rect width="197" height="42" fill="white"/>
</clipPath>
</defs>
</svg>
