<svg width="197" height="42" viewBox="0 0 197 42" fill="none" xmlns="http://www.w3.org/2000/svg">
<g clip-path="url(#clip0_213_405)">
<path d="M43.0105 21.1131C42.7675 9.10795 32.7747 -0.400874 20.7626 0.0145775C9.02932 0.419285 -0.248668 10.2576 0.00508327 22.0228C0.194503 30.715 5.4911 38.0929 12.9642 41.3377C14.0257 39.9875 14.9085 37.5628 15.3481 36.209C15.7877 35.1059 16.2523 34.0279 16.7383 32.9821C18.922 33.7449 21.8562 33.0215 23.4574 31.2737L23.5217 31.2021H23.5146C21.5703 30.3461 18.8934 30.7902 17.1279 32.1583C17.7283 30.9084 18.3645 29.7015 19.0328 28.5411C21.1808 29.4006 24.1364 28.8168 25.8198 27.1479L25.8877 27.0798H25.8805C24.0078 26.1486 21.3666 26.4387 19.5403 27.6743C20.2051 26.5677 20.8949 25.5004 21.6168 24.4797C23.8398 25.1709 26.7704 24.3185 28.3037 22.4884L28.3644 22.4167H28.3573C26.5453 21.7148 24.165 22.1266 22.471 23.3121C22.5317 23.2333 22.5889 23.1509 22.6497 23.0721C23.0821 22.5063 23.5253 21.9583 23.9756 21.4211C26.6025 20.6761 28.9434 17.9936 29.3187 15.2215L29.333 15.1105H29.3222C26.606 15.6549 24.09 18.3338 23.586 21.1668C23.1536 21.6825 22.7283 22.209 22.3137 22.7498C22.9928 20.9053 22.8713 18.6633 21.8813 17.1161V17.109L21.8169 17.1842C20.3194 19.0752 20.08 22.1624 21.2415 24.2075C20.5589 25.1745 19.9013 26.1809 19.2687 27.2231C19.6654 25.1279 18.9971 22.6961 17.5282 21.3244H17.521L17.4817 21.4067C16.5132 23.5914 17.0314 26.6071 18.629 28.3047C17.9999 29.4042 17.396 30.5395 16.8241 31.7178C17.1744 29.5403 16.3952 27.0225 14.837 25.6544L14.8299 25.6472L14.7941 25.7368C13.9113 28.0289 14.5904 31.134 16.3059 32.7923C15.9342 33.5981 15.5732 34.4183 15.2266 35.2599C15.1408 35.174 15.0336 35.1059 14.9121 35.0701C14.4653 34.9376 13.847 34.7048 13.1644 34.2929C12.7141 34.0243 12.2352 33.8022 11.7384 33.6375C9.79772 33 10.0836 32.0616 9.07221 30.1849C9.00788 30.0632 8.20374 29.2251 8.03219 29.0747C7.9893 29.0389 7.47822 28.738 7.21733 28.1901C6.97787 27.6851 6.84563 27.2195 6.7956 26.7611C6.73127 26.1486 6.47752 25.7475 5.88424 25.5434C3.02865 24.5549 4.30813 20.8409 4.4082 20.3466C4.49397 19.924 4.12585 19.0072 3.99004 18.5022C3.97575 18.4413 3.96145 18.3661 3.94358 18.2765C3.73629 17.2809 4.20091 16.4392 4.54401 16.0918C4.88711 15.7444 6.07009 15.1929 6.32026 14.867C6.56329 14.5482 6.75986 14.1829 7.01004 13.8713C7.34241 13.4559 8.36099 12.6429 9.73339 11.9051C10.5625 11.461 10.7127 10.2934 11.0272 9.93885C11.5704 9.32642 12.3888 9.32642 13 8.77487C13.3073 8.49552 13.7541 8.35942 14.04 8.06574C15.4553 6.61166 17.3495 6.0243 19.2258 5.67331C20.4874 5.43694 21.8956 5.80225 23.2143 6.0243C23.4073 6.05653 23.5932 6.10309 23.7719 6.15681C26.7347 6.25709 30.3051 6.87669 31.5917 8.13737C32.3958 8.92529 32.789 9.78127 32.982 10.3722C33.1964 11.0312 33.493 11.6615 33.854 12.2525L34.6474 13.5454C35.1478 14.362 35.3158 15.3469 35.0978 16.2817C34.9762 16.8153 34.9119 17.374 35.0692 17.6856C35.3158 18.1691 36.077 18.9606 36.5345 19.4119C36.7561 19.6303 36.9991 19.8237 37.2636 19.9921C37.8747 20.3789 39.0291 21.1202 39.0327 21.1847C39.0327 21.2707 39.1292 21.6395 38.6181 22.0836C38.107 22.5278 37.1421 23.2369 37.1421 23.2369C37.1421 23.2369 37.1921 23.5628 37.3279 23.8207C37.4637 24.0785 37.7961 24.4653 37.696 24.8127C37.5959 25.1601 36.8847 25.4395 37.0884 25.8263C37.2922 26.2131 37.7925 26.3349 37.6496 26.6858C37.503 27.0368 36.799 27.6385 36.8704 27.9C36.9419 28.1614 37.5102 30.5646 36.195 30.9836C35.2014 31.2988 32.478 31.4779 31.1986 31.5459C30.6446 31.5746 30.1478 31.8897 29.8834 32.3732C29.6832 32.7385 29.4902 33.24 29.3901 33.9097C29.1435 35.6109 27.4638 39.5219 27.4638 39.5219C27.4638 39.5219 27.4137 39.6221 27.3387 39.7833C27.1922 40.1343 26.9849 40.6894 27.0135 40.9115C27.0313 41.0583 27.2315 41.3413 27.521 41.6887C27.7497 41.9644 28.1285 42.0719 28.4681 41.9537C37.092 39.0026 43.2142 30.7293 43.0176 21.1131" fill="#00DACC"/>
<path d="M62.1406 10.6011H67.062L72.5194 19.3936L77.9768 10.6011H82.8982V31.3987H78.3592V17.8213L72.5194 26.7034H72.4015L66.6188 17.9109V31.3987H62.1406V10.6011Z" fill="white"/>
<path d="M99.1484 10.6011H114.802V14.6696H103.684V18.8886H113.469V22.9608H103.684V27.3302H114.952V31.3987H99.1484V10.6011Z" fill="white"/>
<path d="M135.112 14.8201H128.797V10.6011H145.995V14.8201H139.68V31.3987H135.112V14.8201Z" fill="white"/>
<path d="M165.54 10.6011H160.973V31.4023H165.54V10.6011Z" fill="white"/>
<path d="M180.57 28.3689L183.269 25.1312C185.166 26.6748 187.093 27.6561 189.466 27.6561C191.364 27.6561 192.461 26.9148 192.461 25.6935V25.6326C192.461 24.4758 191.75 23.849 188.279 22.9895C184.069 21.9508 181.399 20.7331 181.399 16.6323V16.5715C181.399 12.7966 184.394 10.3003 188.665 10.3003C191.717 10.3003 194.241 11.253 196.374 12.9434L194.001 16.3888C192.132 15.1102 190.384 14.3402 188.605 14.3402C186.825 14.3402 185.935 15.1138 185.935 16.1524V16.2133C185.935 17.6101 186.825 17.9969 190.413 18.946C194.623 20.0741 196.996 21.5605 196.996 25.1849V25.2458C196.996 29.3752 193.855 31.6925 189.377 31.6925C186.203 31.6925 183.061 30.6216 180.57 28.3653" fill="white"/>
</g>
<defs>
<clipPath id="clip0_213_405">
<rect width="197" height="42" fill="white"/>
</clipPath>
</defs>
</svg>
