<svg width="44" height="42" viewBox="0 0 44 42" fill="none" xmlns="http://www.w3.org/2000/svg">
<path id="Vector" d="M43.0105 21.1116C42.7675 9.10649 32.7747 -0.402339 20.7626 0.0131127C9.02932 0.41782 -0.248668 10.2561 0.00508327 22.0213C0.194503 30.7135 5.4911 38.0914 12.9642 41.3362C14.0257 39.986 14.9085 37.5613 15.3481 36.2075C15.7877 35.1044 16.2523 34.0264 16.7383 32.9806C18.922 33.7435 21.8562 33.02 23.4574 31.2723L23.5217 31.2006H23.5146C21.5703 30.3447 18.8934 30.7888 17.1279 32.1569C17.7283 30.9069 18.3645 29.7 19.0328 28.5396C21.1808 29.3991 24.1364 28.8154 25.8198 27.1464L25.8877 27.0783H25.8805C24.0078 26.1472 21.3666 26.4373 19.5403 27.6729C20.2051 26.5662 20.8949 25.4989 21.6168 24.4782C23.8398 25.1694 26.7704 24.317 28.3037 22.4869L28.3644 22.4153H28.3573C26.5453 21.7133 24.165 22.1252 22.471 23.3106C22.5317 23.2318 22.5889 23.1495 22.6497 23.0707C23.0821 22.5048 23.5253 21.9568 23.9756 21.4196C26.6025 20.6747 28.9434 17.9921 29.3187 15.2201L29.333 15.109H29.3222C26.606 15.6534 24.09 18.3324 23.586 21.1653C23.1536 21.6811 22.7283 22.2075 22.3137 22.7483C22.9928 20.9039 22.8713 18.6619 21.8813 17.1147V17.1075L21.8169 17.1827C20.3194 19.0737 20.08 22.161 21.2415 24.206C20.5589 25.173 19.9013 26.1794 19.2687 27.2216C19.6654 25.1264 18.9971 22.6946 17.5282 21.3229H17.521L17.4817 21.4053C16.5132 23.59 17.0314 26.6056 18.629 28.3032C17.9999 29.4027 17.396 30.5381 16.8241 31.7164C17.1744 29.5388 16.3952 27.021 14.837 25.6529L14.8299 25.6458L14.7941 25.7353C13.9113 28.0274 14.5904 31.1326 16.3059 32.7908C15.9342 33.5966 15.5732 34.4168 15.2266 35.2584C15.1408 35.1725 15.0336 35.1044 14.9121 35.0686C14.4653 34.9361 13.847 34.7033 13.1644 34.2914C12.7141 34.0228 12.2352 33.8008 11.7384 33.636C9.79772 32.9985 10.0836 32.0602 9.07221 30.1835C9.00788 30.0617 8.20374 29.2236 8.03219 29.0732C7.9893 29.0374 7.47822 28.7366 7.21733 28.1886C6.97787 27.6836 6.84563 27.218 6.7956 26.7596C6.73127 26.1472 6.47752 25.746 5.88424 25.5419C3.02865 24.5534 4.30813 20.8394 4.4082 20.3452C4.49397 19.9226 4.12585 19.0057 3.99004 18.5007C3.97575 18.4398 3.96145 18.3646 3.94358 18.2751C3.73629 17.2794 4.20091 16.4378 4.54401 16.0904C4.88711 15.743 6.07009 15.1914 6.32026 14.8655C6.56329 14.5468 6.75986 14.1814 7.01004 13.8699C7.34241 13.4544 8.36099 12.6414 9.73339 11.9036C10.5625 11.4595 10.7127 10.292 11.0272 9.93739C11.5704 9.32496 12.3888 9.32496 13 8.77341C13.3073 8.49405 13.7541 8.35796 14.04 8.06428C15.4553 6.6102 17.3495 6.02283 19.2258 5.67185C20.4874 5.43547 21.8956 5.80078 23.2143 6.02283C23.4073 6.05507 23.5932 6.10163 23.7719 6.15535C26.7347 6.25563 30.3051 6.87523 31.5917 8.13591C32.3958 8.92383 32.789 9.7798 32.982 10.3707C33.1964 11.0297 33.493 11.6601 33.854 12.251L34.6474 13.5439C35.1478 14.3605 35.3158 15.3454 35.0978 16.2802C34.9762 16.8138 34.9119 17.3725 35.0692 17.6841C35.3158 18.1676 36.077 18.9591 36.5345 19.4104C36.7561 19.6289 36.9991 19.8223 37.2636 19.9906C37.8747 20.3774 39.0291 21.1188 39.0327 21.1832C39.0327 21.2692 39.1292 21.6381 38.6181 22.0822C38.107 22.5263 37.1421 23.2354 37.1421 23.2354C37.1421 23.2354 37.1921 23.5613 37.3279 23.8192C37.4637 24.0771 37.7961 24.4639 37.696 24.8113C37.5959 25.1587 36.8847 25.438 37.0884 25.8248C37.2922 26.2116 37.7925 26.3334 37.6496 26.6844C37.503 27.0354 36.799 27.6371 36.8704 27.8985C36.9419 28.16 37.5102 30.5631 36.195 30.9822C35.2014 31.2973 32.478 31.4764 31.1986 31.5444C30.6446 31.5731 30.1478 31.8883 29.8834 32.3718C29.6832 32.7371 29.4902 33.2385 29.3901 33.9082C29.1435 35.6094 27.4638 39.5204 27.4638 39.5204C27.4638 39.5204 27.4137 39.6207 27.3387 39.7818C27.1922 40.1328 26.9849 40.688 27.0135 40.91C27.0313 41.0569 27.2315 41.3398 27.521 41.6872C27.7497 41.963 28.1285 42.0704 28.4681 41.9522C37.092 39.0011 43.2142 30.7279 43.0176 21.1116" fill="#00DACC"/>
</svg>
